<?xml version="1.0" encoding="UTF-8"?><svg id="uuid-a005fc55-219b-47f6-b13a-53a1fba1c565" xmlns="http://www.w3.org/2000/svg" viewBox="0 0 517 179.99"><path d="M153.14,68.46c-3.04-1.85-6.65-1.96-9.67-.6-.86.27-1.66.74-2.29,1.42-.89.73-1.69,1.61-2.32,2.64-2.99,4.91-1.44,11.31,3.47,14.29,4.9,2.99,11.3,1.44,14.28-3.47,2.99-4.9,1.43-11.29-3.47-14.28Z" style="fill:#27aae1; stroke-width:0px;"/><polygon points="135.91 41.56 125.56 16.28 105.09 97.52 142.52 120.33 150.95 106.49 123.73 89.9 135.91 41.56" style="fill:#27aae1; stroke-width:0px;"/><path d="M53.14,77.65c.67.62,1.48,1.08,2.39,1.29,1.08.41,2.24.67,3.46.69,5.74.13,10.51-4.41,10.64-10.15.13-5.74-4.41-10.5-10.16-10.64-5.73-.13-10.49,4.41-10.63,10.15-.08,3.54,1.62,6.71,4.29,8.65Z" style="fill:#6bc7b6; stroke-width:0px;"/><polygon points="82.89 51.88 82.14 83.76 34.17 97.38 17.46 118.97 98.06 96.08 99.09 52.26 82.89 51.88" style="fill:#6bc7b6; stroke-width:0px;"/><path d="M106.74,148.26c-.18-1.13-.55-2.25-1.13-3.32-2.76-5.04-9.07-6.9-14.1-4.14-5.04,2.75-6.89,9.06-4.14,14.11,2.75,5.03,9.07,6.88,14.11,4.13,3.12-1.71,5.01-4.78,5.35-8.06.2-.89.19-1.82-.09-2.72Z" style="fill:#f6a01a; stroke-width:0px;"/><polygon points="100.32 102.89 61.86 123.91 69.63 138.13 97.61 122.84 133.38 157.57 160.45 161.25 100.32 102.89" style="fill:#f6a01a; stroke-width:0px;"/><path d="M212,110.87c-.91.35-1.84.61-2.76.79-.93.17-1.86.26-2.8.26-6.08,0-11.03-2.09-14.83-6.26-3.8-4.18-5.71-9.65-5.71-16.42s1.86-12.71,5.58-17.04c3.72-4.32,8.57-6.48,14.57-6.48,1.11,0,2.16.09,3.14.26.98.18,1.92.45,2.81.82v8.42c-.91-.35-1.8-.61-2.66-.77-.86-.16-1.71-.25-2.54-.25-3.18,0-5.77,1.33-7.75,3.98-1.98,2.65-2.98,6.17-2.98,10.55s1.02,7.63,3.06,10.25c2.04,2.61,4.66,3.92,7.87,3.92.81,0,1.63-.09,2.47-.28.84-.19,1.68-.45,2.53-.8v9.04Z" style="fill:#6bc7b6; stroke-width:0px;"/><path d="M248.6,89.48c0,6.87-1.53,12.33-4.58,16.37-3.05,4.04-7.13,6.06-12.23,6.06s-9.39-2.03-12.33-6.09c-2.94-4.06-4.41-9.72-4.41-16.96s1.49-12.88,4.46-16.99c2.98-4.11,7.07-6.16,12.28-6.16s9.34,2.1,12.33,6.29c2.99,4.2,4.48,10.02,4.48,17.47ZM231.79,103.34c2.44,0,4.27-1.21,5.48-3.61,1.21-2.41,1.81-6.03,1.81-10.86s-.6-8.52-1.81-10.92c-1.21-2.41-3.04-3.61-5.48-3.61s-4.26,1.2-5.46,3.6c-1.2,2.4-1.8,6.04-1.8,10.94s.6,8.51,1.8,10.89c1.2,2.39,3.02,3.58,5.46,3.58Z" style="fill:#6bc7b6; stroke-width:0px;"/><path d="M251.75,111.36l4.68-45.06h12.26l2.49,17.19c.37,2.61.68,5.12.93,7.51.25,2.4.45,4.73.6,6.99.39-3.97.72-7.1,1-9.4.27-2.3.5-4,.67-5.11l3.07-17.19h12.13l4.02,45.06h-9.65l-1.01-20.92c-.02-.49-.05-1.23-.1-2.22-.28-5.47-.42-9.96-.42-13.45l-6.21,36.6h-6.9l-5.85-36.85c0,3.07-.2,7.45-.59,13.15-.09,1.3-.15,2.26-.2,2.9l-1.47,20.8h-9.45Z" style="fill:#6bc7b6; stroke-width:0px;"/><path d="M296.95,111.36l4.68-45.06h12.26l2.49,17.19c.37,2.61.68,5.12.93,7.51.25,2.4.45,4.73.6,6.99.39-3.97.72-7.1,1-9.4.27-2.3.5-4,.67-5.11l3.07-17.19h12.13l4.02,45.06h-9.65l-1.01-20.92c-.02-.49-.05-1.23-.1-2.22-.28-5.47-.42-9.96-.42-13.45l-6.21,36.6h-6.9l-5.85-36.85c0,3.07-.2,7.45-.59,13.15-.09,1.3-.15,2.26-.2,2.9l-1.47,20.8h-9.45Z" style="fill:#6bc7b6; stroke-width:0px;"/><path d="M373.66,66.31v28.3c0,3.46-.11,5.91-.33,7.36-.22,1.45-.58,2.65-1.08,3.6-1.16,2.16-2.83,3.76-5.02,4.8-2.19,1.04-5.01,1.56-8.45,1.56s-6.27-.52-8.49-1.56c-2.21-1.04-3.89-2.64-5.02-4.8-.52-.97-.89-2.18-1.11-3.64-.22-1.46-.33-3.9-.33-7.31v-28.3h9.52v29.01c0,3.68.4,6.05,1.19,7.11.8,1.06,2.21,1.59,4.24,1.59s3.49-.54,4.27-1.62c.77-1.08,1.16-3.44,1.16-7.08v-29.01h9.45Z" style="fill:#6bc7b6; stroke-width:0px;"/><path d="M380.88,111.36v-45.06h9.65l9.65,24.26c.28.78.68,1.98,1.19,3.6.51,1.62,1.1,3.51,1.75,5.69-.5-3.19-.87-6.12-1.11-8.78-.24-2.66-.36-5.15-.36-7.45v-17.31h8.83v45.06h-8.83l-10.46-25.21c-.17-.37-.63-1.9-1.37-4.6-.35-1.23-.62-2.2-.82-2.9.22,1.75.38,3.72.49,5.91.11,2.19.16,4.81.16,7.85v18.95h-8.77Z" style="fill:#6bc7b6; stroke-width:0px;"/><path d="M418.04,111.36v-45.06h9.71v45.06h-9.71Z" style="fill:#6bc7b6; stroke-width:0px;"/><path d="M439.45,111.36v-36.72h-7.29v-8.33h24.17v8.33h-7.29v36.72h-9.58Z" style="fill:#6bc7b6; stroke-width:0px;"/><path d="M468.62,111.36v-21.17l-11.05-23.89h10.04l3.14,8.15c.59,1.46,1.12,2.92,1.6,4.37.48,1.45.94,2.93,1.37,4.43.39-1.67.82-3.22,1.28-4.66.46-1.44.93-2.74,1.41-3.89l3.47-8.39h9.32l-11.12,23.89v21.17h-9.45Z" style="fill:#6bc7b6; stroke-width:0px;"/><path d="M221.78,130.35l-.29,1.25c-.37.01-.83.07-1.4.17-.57.1-.99.2-1.27.29-.49.16-.85.42-1.06.78-.21.35-.37.73-.47,1.14l-4.56,19.58c-.03.1-.04.21-.06.34-.01.13-.02.23-.02.3,0,.26.06.5.17.71.11.21.3.39.57.56.18.11.55.23,1.13.34.58.11,1.03.18,1.36.19l-.3,1.25h-11.86l.3-1.25c.45-.03,1.02-.07,1.71-.14.68-.07,1.16-.17,1.44-.31.44-.24.8-.52,1.07-.83.27-.32.45-.7.54-1.16l4.67-20.04h-.21l-14.66,23.3h-.9l-3.37-23.77h-.19l-3.82,16.53c-.15.67-.28,1.32-.38,1.95-.1.63-.15,1.14-.15,1.54,0,.42.04.78.13,1.07.09.3.21.54.38.73.23.27.71.51,1.44.72.73.21,1.31.35,1.73.42l-.3,1.25h-10.88l.3-1.25c.59-.06,1.19-.15,1.78-.27.59-.11,1.14-.33,1.65-.64.5-.34.93-.9,1.29-1.67.35-.77.71-1.98,1.08-3.64l3.23-13.95c.06-.29.11-.55.14-.79.03-.23.05-.46.05-.69,0-.4-.05-.74-.15-1.01-.1-.27-.23-.5-.4-.69-.33-.37-.77-.63-1.34-.78-.56-.15-1.08-.24-1.54-.27l.28-1.25h9.09l2.93,20.23,10.45-16.93c.39-.64.75-1.31,1.08-1.99.33-.68.52-1.12.57-1.31h9.04Z" style="fill:#f6a01a; stroke-width:0px;"/><path d="M238.79,142.05c0,1.34-.42,2.49-1.26,3.46-.84.96-2.06,1.73-3.67,2.3-1.18.43-2.36.78-3.56,1.04-1.2.27-2.53.49-3.98.66,0,2,.37,3.52,1.11,4.58.74,1.06,1.82,1.58,3.25,1.58,1.26,0,2.38-.32,3.35-.95.97-.63,1.92-1.57,2.85-2.82l1.08.8c-1.01,1.54-2.28,2.77-3.79,3.7-1.52.92-3.09,1.38-4.72,1.38-2.24,0-3.95-.63-5.13-1.88-1.18-1.25-1.77-3.03-1.77-5.33,0-1.59.25-3.12.75-4.56.5-1.45,1.23-2.77,2.19-3.98.94-1.18,2.08-2.12,3.44-2.85,1.36-.72,2.86-1.08,4.5-1.08,1.82,0,3.17.37,4.05,1.11.88.74,1.32,1.69,1.32,2.84ZM235.3,141.58c0-.49-.07-.88-.21-1.16-.14-.28-.32-.49-.53-.63-.23-.15-.47-.25-.72-.29-.25-.04-.51-.06-.78-.06-1.52,0-2.92.83-4.2,2.5-1.28,1.66-2.09,3.74-2.44,6.22.88-.13,1.88-.31,3-.54s2.04-.54,2.77-.92c1.05-.54,1.83-1.24,2.34-2.09s.77-1.86.77-3.04Z" style="fill:#f6a01a; stroke-width:0px;"/><path d="M254.45,154.65h-.13c-.28.24-.64.55-1.08.94-.44.39-.9.72-1.38,1.02-.61.38-1.16.67-1.68.87-.51.2-1.14.3-1.88.3-1.83,0-3.27-.66-4.31-1.98-1.04-1.32-1.56-3.12-1.56-5.4,0-1.59.28-3.13.84-4.61.56-1.48,1.33-2.8,2.3-3.95.95-1.11,2.09-2.01,3.42-2.7,1.33-.69,2.73-1.04,4.18-1.04.87,0,1.74.11,2.6.34.86.23,1.57.51,2.12.83l1.48-6.45c.08-.34.13-.61.16-.8.03-.19.05-.4.05-.62,0-.46-.09-.8-.28-1.04-.18-.24-.44-.42-.77-.53-.3-.11-.72-.19-1.25-.23-.53-.04-1.01-.08-1.44-.13l.27-1.16,7.68-.42.19.29-5.26,22.73c-.1.42-.21.89-.31,1.43-.11.54-.16.95-.16,1.22,0,.72.15,1.21.46,1.47.3.26.82.39,1.54.39.24,0,.58-.04,1.02-.11.44-.08.78-.16,1.02-.25l-.29,1.21c-1.06.48-1.94.82-2.64,1.01-.7.19-1.34.28-1.94.28-.91,0-1.64-.24-2.17-.71s-.81-1.21-.81-2.21ZM257.15,142.56c-.03-.37-.12-.72-.29-1.07-.16-.35-.37-.66-.63-.94-.29-.32-.67-.58-1.13-.79-.46-.21-1.01-.31-1.64-.31-.97,0-1.89.3-2.76.91-.87.61-1.63,1.42-2.29,2.43-.63.97-1.14,2.15-1.52,3.52-.38,1.37-.57,2.75-.57,4.13,0,.77.04,1.46.13,2.05.09.6.26,1.14.51,1.65.24.47.58.84,1.02,1.11.44.27,1.03.41,1.76.41.69,0,1.45-.21,2.26-.63.82-.42,1.72-1.14,2.72-2.18l2.4-10.29Z" style="fill:#f6a01a; stroke-width:0px;"/><path d="M275.43,155.18l-.28,1.21c-1.16.47-2.09.8-2.79.98-.69.18-1.29.28-1.78.28-1.01,0-1.77-.26-2.28-.79-.51-.53-.76-1.17-.76-1.95,0-.29.02-.6.08-.91.05-.32.13-.71.25-1.2l2-8.06c.1-.44.2-.92.29-1.42.09-.51.14-.94.14-1.29,0-.71-.12-1.18-.35-1.41-.23-.23-.71-.35-1.43-.35-.28,0-.65.04-1.11.13-.46.09-.81.17-1.05.23l.28-1.21c.99-.44,1.87-.77,2.65-.99.78-.21,1.4-.32,1.86-.32,1.04,0,1.79.25,2.25.74.47.49.7,1.16.7,1.99,0,.23-.03.54-.08.93-.05.39-.13.79-.23,1.18l-2.01,8.06c-.13.49-.24.98-.33,1.45-.09.47-.14.86-.14,1.17,0,.72.16,1.21.48,1.48.32.27.84.4,1.56.4.24,0,.58-.03,1.03-.09.45-.06.79-.14,1.03-.23ZM276.78,130.93c0,.72-.23,1.35-.7,1.89-.47.54-1.05.8-1.74.8-.64,0-1.2-.26-1.67-.77s-.7-1.1-.7-1.75c0-.69.23-1.3.7-1.82.47-.52,1.02-.78,1.67-.78.72,0,1.31.24,1.76.73.46.49.68,1.05.68,1.7Z" style="fill:#f6a01a; stroke-width:0px;"/><path d="M286.52,157.78c-2.21,0-3.96-.64-5.24-1.94-1.28-1.29-1.92-3.12-1.92-5.5,0-1.58.24-3.1.73-4.54.49-1.45,1.17-2.74,2.04-3.86.87-1.12,1.97-2.04,3.31-2.76,1.33-.71,2.82-1.07,4.45-1.07,1.81,0,3.18.38,4.12,1.15.94.77,1.41,1.73,1.41,2.89,0,.87-.21,1.64-.62,2.29-.41.66-1.03.99-1.85.99-.68,0-1.19-.17-1.54-.51-.34-.34-.51-.72-.51-1.13s.14-.96.41-1.65c.27-.7.49-1.26.65-1.69-.14-.34-.45-.59-.93-.75-.48-.16-.98-.24-1.5-.24-1.72,0-3.2,1-4.45,3.01-1.25,2-1.87,4.46-1.87,7.36,0,1.79.4,3.22,1.21,4.28.8,1.06,1.89,1.58,3.26,1.58,1.23,0,2.32-.33,3.28-.99.96-.66,1.87-1.59,2.74-2.79l1.08.8c-.87,1.38-2.06,2.57-3.55,3.57-1.5,1.01-3.07,1.51-4.71,1.51Z" style="fill:#f6a01a; stroke-width:0px;"/><path d="M310.43,154.74h-.13c-.28.23-.61.52-.99.86-.38.35-.84.68-1.35,1-.49.32-1.03.59-1.61.82-.58.23-1.21.35-1.89.35-1.83,0-3.27-.66-4.31-1.97-1.04-1.32-1.56-3.11-1.56-5.39,0-1.57.29-3.09.87-4.57.58-1.48,1.38-2.81,2.41-3.98.97-1.13,2.13-2.03,3.47-2.72,1.34-.69,2.71-1.04,4.13-1.04.9,0,1.75.12,2.57.36.81.24,1.46.51,1.92.81l3.48-.89.23.28-2.89,12.24c-.1.39-.2.87-.31,1.43-.11.56-.16.98-.16,1.24,0,.72.15,1.21.46,1.46.3.25.82.38,1.54.38.24,0,.58-.04,1.03-.11.44-.08.79-.16,1.03-.25l-.29,1.21c-1.14.46-1.99.79-2.55.99-.56.2-1.23.3-2.03.3-.91,0-1.63-.27-2.17-.8-.53-.53-.82-1.21-.87-2.03ZM313.16,142.75c0-.42-.04-.82-.13-1.2-.09-.38-.27-.73-.55-1.06-.25-.32-.6-.57-1.04-.76-.44-.19-1-.29-1.67-.29-.92,0-1.82.3-2.69.91-.87.61-1.66,1.42-2.35,2.45-.66.96-1.2,2.13-1.61,3.49-.42,1.37-.63,2.75-.63,4.16,0,.77.04,1.46.13,2.05.09.59.26,1.14.51,1.63.24.48.59.85,1.04,1.12.45.27,1.03.4,1.72.4s1.45-.2,2.22-.6c.78-.4,1.65-1.1,2.62-2.1l2.43-10.21Z" style="fill:#f6a01a; stroke-width:0px;"/><path d="M332.43,128.19l-5.3,22.82c-.11.48-.22.96-.32,1.44-.1.48-.15.87-.15,1.17,0,.72.16,1.21.48,1.48.32.27.84.4,1.56.4.25,0,.63-.03,1.12-.09.5-.06.87-.14,1.13-.23l-.29,1.21c-1.14.46-2.01.78-2.62.97-.61.19-1.31.29-2.08.29-1.01,0-1.78-.26-2.3-.79-.53-.53-.79-1.17-.79-1.95,0-.29.03-.59.08-.91.06-.32.14-.71.24-1.2l4.62-19.97c.09-.39.15-.66.18-.82.03-.15.05-.34.05-.57,0-.46-.08-.81-.23-1.05-.15-.25-.37-.43-.65-.56-.27-.11-.6-.19-1.01-.23-.41-.04-.82-.08-1.24-.13l.27-1.16,7.05-.42.19.29Z" style="fill:#f6a01a; stroke-width:0px;"/><path d="M356.54,157.89c-1.38,0-2.68-.24-3.91-.72-1.23-.48-2.29-1.18-3.2-2.11-.92-.94-1.65-2.07-2.17-3.4-.52-1.33-.79-2.83-.79-4.5,0-2.39.4-4.62,1.21-6.7.81-2.08,1.92-3.93,3.34-5.56,1.37-1.57,3-2.83,4.92-3.78,1.91-.95,3.91-1.42,6-1.42,1.58,0,2.97.19,4.16.56,1.19.37,2.18.83,2.95,1.38l1.06-1.29h1.52l-2.05,9.59h-1.55v-.76c0-1.04-.08-2.03-.25-2.97-.16-.94-.48-1.79-.95-2.55-.46-.73-1.08-1.32-1.87-1.76-.79-.44-1.8-.66-3.02-.66-1.55,0-3,.42-4.33,1.24-1.33.83-2.49,1.93-3.46,3.31-.96,1.34-1.73,2.99-2.31,4.96-.58,1.96-.87,3.96-.87,6,0,2.7.66,4.88,1.98,6.56,1.32,1.68,3.09,2.52,5.32,2.52,1.86,0,3.57-.55,5.13-1.65,1.56-1.1,2.83-2.57,3.82-4.42l1.37.72c-1.59,2.72-3.37,4.63-5.33,5.74-1.96,1.11-4.2,1.67-6.71,1.67Z" style="fill:#f6a01a; stroke-width:0px;"/><path d="M388.62,142.05c0,1.34-.42,2.49-1.26,3.46-.84.96-2.06,1.73-3.67,2.3-1.18.43-2.36.78-3.56,1.04-1.2.27-2.53.49-3.98.66,0,2,.37,3.52,1.11,4.58.74,1.06,1.82,1.58,3.25,1.58,1.26,0,2.38-.32,3.35-.95.97-.63,1.92-1.57,2.85-2.82l1.08.8c-1.01,1.54-2.28,2.77-3.79,3.7-1.52.92-3.09,1.38-4.72,1.38-2.24,0-3.95-.63-5.13-1.88-1.18-1.25-1.77-3.03-1.77-5.33,0-1.59.25-3.12.75-4.56.5-1.45,1.23-2.77,2.19-3.98.94-1.18,2.08-2.12,3.44-2.85,1.36-.72,2.86-1.08,4.5-1.08,1.82,0,3.17.37,4.05,1.11.88.74,1.32,1.69,1.32,2.84ZM385.13,141.58c0-.49-.07-.88-.21-1.16-.14-.28-.32-.49-.53-.63-.23-.15-.47-.25-.72-.29-.25-.04-.51-.06-.78-.06-1.52,0-2.92.83-4.2,2.5-1.28,1.66-2.09,3.74-2.44,6.22.88-.13,1.88-.31,3-.54s2.04-.54,2.77-.92c1.05-.54,1.83-1.24,2.34-2.09.51-.85.77-1.86.77-3.04Z" style="fill:#f6a01a; stroke-width:0px;"/><path d="M412.71,155.05l-.29,1.21c-1.14.45-2.03.79-2.66.99s-1.27.31-1.92.31c-1.02,0-1.78-.26-2.28-.79-.51-.53-.76-1.17-.76-1.95,0-.28.03-.58.08-.92.05-.34.13-.73.25-1.19l1.87-7.08c.14-.54.25-1.04.33-1.48.08-.44.12-.8.12-1.06,0-.85-.2-1.52-.6-2.01-.4-.49-1-.74-1.79-.74s-1.62.25-2.58.76c-.95.51-1.85,1.24-2.69,2.2l-3.24,13.93h-3.54l2.84-12.3c.06-.3.15-.74.27-1.32.12-.57.18-1.04.18-1.39,0-.71-.12-1.18-.36-1.42-.24-.24-.72-.36-1.45-.36-.28,0-.64.05-1.07.14-.43.1-.77.17-1.01.24l.29-1.21c.99-.44,1.87-.77,2.63-.99.76-.21,1.42-.32,1.96-.32,1,0,1.72.27,2.15.82.43.54.66,1.29.69,2.26h.11c1.39-1.11,2.58-1.94,3.59-2.48,1.01-.54,2.15-.81,3.44-.81,1.21,0,2.15.35,2.83,1.05.68.7,1.02,1.62,1.02,2.76,0,.23-.04.63-.1,1.21-.07.58-.18,1.16-.33,1.73l-1.59,6.09c-.11.41-.22.87-.33,1.4-.11.52-.16.93-.16,1.22,0,.72.16,1.21.47,1.47.32.26.83.39,1.55.39.24,0,.58-.04,1.03-.12.45-.08.79-.17,1.03-.26Z" style="fill:#f6a01a; stroke-width:0px;"/><path d="M421.12,157.64c-1.2,0-2.08-.24-2.63-.73-.56-.49-.83-1.18-.83-2.09,0-.29.02-.57.06-.82.04-.26.09-.55.15-.88l2.95-12.66h-3.39l.4-1.73h3.46l1.32-5.55h3.41l-1.28,5.55h5.28l-.4,1.73h-5.23l-2.45,10.45c-.11.48-.21.94-.28,1.39-.08.45-.11.83-.11,1.15,0,.7.17,1.21.52,1.53.35.32.98.48,1.89.48.33,0,.79-.04,1.38-.12.59-.08,1.06-.19,1.38-.31l-.32,1.38c-.88.34-1.72.64-2.5.88s-1.71.37-2.77.37Z" style="fill:#f6a01a; stroke-width:0px;"/><path d="M447.97,142.05c0,1.34-.42,2.49-1.26,3.46-.84.96-2.06,1.73-3.67,2.3-1.18.43-2.36.78-3.56,1.04-1.2.27-2.53.49-3.98.66,0,2,.37,3.52,1.11,4.58.74,1.06,1.82,1.58,3.25,1.58,1.26,0,2.38-.32,3.35-.95.97-.63,1.92-1.57,2.85-2.82l1.08.8c-1.01,1.54-2.28,2.77-3.79,3.7-1.52.92-3.09,1.38-4.72,1.38-2.24,0-3.95-.63-5.13-1.88-1.18-1.25-1.77-3.03-1.77-5.33,0-1.59.25-3.12.75-4.56.5-1.45,1.23-2.77,2.19-3.98.94-1.18,2.08-2.12,3.44-2.85,1.36-.72,2.86-1.08,4.5-1.08,1.82,0,3.17.37,4.05,1.11.88.74,1.32,1.69,1.32,2.84ZM444.48,141.58c0-.49-.07-.88-.21-1.16-.14-.28-.32-.49-.53-.63-.23-.15-.47-.25-.72-.29-.25-.04-.51-.06-.78-.06-1.52,0-2.92.83-4.2,2.5-1.28,1.66-2.09,3.74-2.44,6.22.88-.13,1.88-.31,3-.54s2.04-.54,2.77-.92c1.05-.54,1.83-1.24,2.34-2.09.51-.85.77-1.86.77-3.04Z" style="fill:#f6a01a; stroke-width:0px;"/><path d="M468.36,141.19c0,.35-.05.74-.15,1.17-.1.42-.25.77-.44,1.05-.23.34-.48.6-.75.79-.27.18-.66.27-1.17.27-.68,0-1.19-.17-1.54-.51-.34-.34-.51-.72-.51-1.14,0-.39.09-.83.29-1.32.19-.49.38-.97.59-1.45-.15,0-.4.04-.75.12-.35.08-.77.24-1.26.48-.49.24-1.05.6-1.67,1.08-.62.48-1.29,1.12-1.99,1.92l-3.05,13.59h-3.54l2.76-12.3c.06-.3.15-.76.28-1.37.12-.61.18-1.06.18-1.35,0-.71-.12-1.18-.36-1.42-.24-.24-.72-.36-1.44-.36-.28,0-.63.05-1.06.14-.43.1-.76.17-1,.24l.28-1.21c.99-.44,1.86-.77,2.62-.99.76-.21,1.41-.32,1.95-.32,1.01,0,1.73.28,2.16.82.43.55.64,1.38.64,2.48h.11c1.5-1.3,2.64-2.21,3.42-2.73.78-.52,1.59-.78,2.44-.78.4,0,.8.05,1.17.15.38.1.7.27.97.51.28.27.48.57.62.92.13.35.2.85.2,1.51Z" style="fill:#f6a01a; stroke-width:0px;"/><path d="M476.61,157.81c-1.87,0-3.43-.33-4.67-.99-1.25-.66-1.87-1.53-1.87-2.61,0-.5.18-.98.55-1.42.37-.44.82-.66,1.35-.66s.91.12,1.22.35c.31.23.55.51.73.82.19.33.36.72.5,1.18.15.45.27.83.37,1.12.19.21.45.41.79.6.34.18.82.27,1.45.27,1.37,0,2.4-.34,3.1-1.03.7-.69,1.05-1.61,1.05-2.78,0-.86-.33-1.55-.99-2.06-.66-.51-1.64-.98-2.94-1.42-.47-.15-1.02-.38-1.65-.69-.63-.31-1.14-.64-1.52-1-.45-.41-.82-.89-1.1-1.44-.28-.56-.42-1.22-.42-1.98,0-1.62.72-3.02,2.17-4.21,1.45-1.18,3.23-1.78,5.34-1.78.49,0,1.02.03,1.59.08.57.05,1.19.19,1.88.42.59.2,1.1.5,1.52.9.42.4.63.91.63,1.55,0,.52-.17.99-.52,1.41-.35.42-.81.63-1.37.63-.47,0-.85-.1-1.16-.3-.3-.2-.56-.47-.76-.81-.2-.34-.37-.71-.49-1.1-.13-.39-.27-.78-.42-1.16-.24-.1-.46-.17-.64-.21-.19-.04-.44-.06-.76-.06-1.24,0-2.18.33-2.82,1-.64.67-.96,1.46-.96,2.37s.29,1.55.86,2c.58.45,1.53.91,2.85,1.4,1.72.62,2.97,1.33,3.74,2.13.78.8,1.17,1.79,1.17,2.96,0,1.92-.74,3.49-2.22,4.7s-3.34,1.81-5.59,1.81Z" style="fill:#f6a01a; stroke-width:0px;"/></svg>
